<svg width="30" height="33" viewBox="0 0 30 33" fill="none" xmlns="http://www.w3.org/2000/svg">
<path fill-rule="evenodd" clip-rule="evenodd" d="M19.8985 2.81325C20.0085 3.37563 19.981 3.883 20.5173 3.89675C21.0522 3.9105 20.9972 3.498 21.2845 2.827C22.2732 2.64825 22.6568 2.73075 22.6568 2.2495C22.6568 1.76963 22.2443 1.64725 21.4633 1.37225C21.2295 0.1925 21.1195 0 20.8047 0C20.4884 0 20.4197 0.20625 19.9535 1.1385C18.4988 1.37225 18.3764 1.5235 18.3352 1.81225C18.2939 2.101 18.2664 2.40075 19.8985 2.81325ZM28.0358 19.1414C27.7608 18.4415 27.747 17.9204 27.2534 17.9754C26.7598 18.0304 26.8959 18.3604 26.6773 19.2239H26.5535C24.5639 19.7725 24.6602 20.02 24.6739 20.2249C24.6877 20.4298 24.9214 20.7474 26.636 20.8711C27.0898 22.8181 27.4872 22.6682 27.6659 22.6545C27.8447 22.6407 28.2008 22.4345 28.3108 20.7199V20.6511C29.683 20.2524 30.0117 20.2661 29.9979 19.7587C29.9842 19.25 29.8192 19.2775 28.0358 19.1414ZM5.61503 11.0454C5.19811 11.0676 4.78671 11.151 4.39403 11.2929C4.21403 11.3741 4.05636 11.4977 3.93448 11.6531C3.81261 11.8085 3.73015 11.9911 3.69416 12.1853C3.57904 12.8416 3.52382 13.5071 3.52916 14.1735C3.52916 15.6282 3.43291 17.083 3.44666 18.5515C3.44666 19.5387 3.44666 20.5274 3.57041 21.5009C3.66666 22.8731 3.57041 26.1663 3.65291 27.5935C3.6368 27.8362 3.6368 28.0796 3.65291 28.3223C3.6654 28.4759 3.71931 28.6232 3.80889 28.7487C3.89848 28.8741 4.02039 28.9729 4.16166 29.0345C4.9004 29.1939 5.65574 29.2632 6.41116 29.2408C8.75691 29.2408 12.5712 29.1583 14.0809 29.117L18.1289 28.9245C18.1289 28.9245 18.925 28.9245 19.2138 28.8558C19.3717 28.8413 19.5202 28.7738 19.6348 28.6642C19.7494 28.5545 19.8235 28.4093 19.8449 28.2521C19.8703 27.7951 19.8703 27.3369 19.8449 26.8799C19.7624 25.8101 19.5837 24.6029 19.4737 23.8067C19.4668 23.7381 19.4464 23.6715 19.4137 23.6108C19.381 23.5501 19.3365 23.4965 19.283 23.453C19.2294 23.4095 19.1678 23.3771 19.1016 23.3576C19.0355 23.3381 18.9661 23.3318 18.8975 23.3393C18.7575 23.3565 18.6299 23.4282 18.5424 23.5389C18.4549 23.6496 18.4145 23.7903 18.43 23.9305C18.43 24.6029 18.6088 25.5901 18.6638 26.5375V27.566L18.1014 27.6898H14.0809C12.9287 27.6898 10.4867 27.6897 8.35953 27.6072C7.11103 27.6072 5.98628 27.6073 5.36891 27.5247C5.36891 26.0576 5.36891 22.7095 5.28641 21.351C5.20391 20.4036 5.17641 19.4576 5.14891 18.5103V14.1611C5.12141 12.1578 3.98291 12.7188 8.23578 12.3338L16.6329 11.7851C16.6951 11.7819 16.756 11.7663 16.812 11.7392C16.868 11.7121 16.9181 11.6741 16.9593 11.6274C17.0004 11.5807 17.0319 11.5263 17.0517 11.4673C17.0716 11.4083 17.0794 11.3459 17.0748 11.2839C17.0703 11.2218 17.0533 11.1613 17.0251 11.1058C16.9968 11.0504 16.9577 11.0011 16.9101 10.961C16.8626 10.9208 16.8075 10.8906 16.748 10.872C16.6886 10.8535 16.6261 10.847 16.5642 10.8529L8.09828 11.0454H5.61503Z" fill="#6ACBCC"/>
<path fill-rule="evenodd" clip-rule="evenodd" d="M1.771 14.8747C1.771 12.9112 1.936 10.9628 2.14225 9.01445H2.30725C3.02705 8.88598 3.75682 8.82156 4.488 8.82195C4.96925 8.82195 5.4615 8.82195 5.9565 8.73945C9.6195 8.30082 8.096 8.8082 9.33075 7.10732C9.50675 6.84149 9.72217 6.61278 9.977 6.4212C10.252 6.18745 10.5682 6.00732 10.9093 5.88632C11.1079 5.79801 11.3229 5.75237 11.5404 5.75237C11.7578 5.75237 11.9728 5.79801 12.1715 5.88632C13.0487 6.4102 13.6978 7.24207 13.9961 8.2197C14.0138 8.2867 14.0446 8.34952 14.0868 8.4045C14.129 8.45948 14.1817 8.50552 14.2418 8.53994C14.3019 8.57436 14.3683 8.59648 14.4371 8.605C14.5059 8.61352 14.5757 8.60828 14.6424 8.58957C14.7653 8.53999 14.8654 8.44665 14.9236 8.32757C14.9817 8.20849 14.9937 8.0721 14.9573 7.9447C14.8601 7.13548 14.5567 6.36479 14.0761 5.70653C13.5955 5.04826 12.9539 4.52449 12.2127 4.18545C11.8379 4.07581 11.4445 4.04487 11.0571 4.09456C10.6698 4.14425 10.2969 4.2735 9.96187 4.4742C9.56824 4.70683 9.21602 5.00329 8.91963 5.35145C8.61712 5.71582 8.382 6.12832 8.21975 6.57245C8.1235 6.83828 8.041 7.10824 7.97225 7.38232C7.4141 7.23706 6.84539 7.13591 6.27137 7.07982C5.93828 7.05217 5.60347 7.05217 5.27038 7.07982C4.92846 7.10732 4.58975 7.15774 4.25425 7.23107C1.16737 7.9447 0.796125 7.23107 0.1375 15.9444C0.04125 17.0554 0 18.1678 0 19.2788V22.5994C0.15125 25.1789 0.42625 27.7447 0.7425 30.3104C0.747639 30.3803 0.766763 30.4484 0.798737 30.5107C0.830711 30.573 0.874882 30.6282 0.928624 30.6731C0.982367 30.718 1.04459 30.7516 1.11158 30.772C1.17858 30.7924 1.24899 30.7991 1.31863 30.7917C1.45443 30.7743 1.57887 30.7069 1.66762 30.6027C1.75636 30.4984 1.80303 30.3648 1.7985 30.2279C1.661 27.1686 1.661 24.1092 1.70225 21.0347V17.3854C1.75725 16.5329 1.75725 15.6846 1.771 14.8747ZM22.5582 19.4837C22.5466 19.4234 22.5231 19.3659 22.4892 19.3147C22.4553 19.2634 22.4116 19.2194 22.3606 19.185C22.3097 19.1507 22.2524 19.1267 22.1922 19.1145C22.132 19.1023 22.0699 19.102 22.0096 19.1138C21.889 19.1403 21.7832 19.2122 21.7141 19.3146C21.6449 19.417 21.6178 19.542 21.6384 19.6638C21.7585 21.158 21.7814 22.6531 21.7071 24.1491C21.7071 25.1377 21.7071 26.1249 21.6384 27.0998C21.5985 28.1613 21.4665 29.2173 21.241 30.2554C21.2013 30.3904 21.2147 30.5355 21.2787 30.6608C21.3426 30.7861 21.4522 30.8822 21.5848 30.9292C21.7177 30.968 21.8605 30.9539 21.9832 30.8899C22.106 30.8258 22.1992 30.7167 22.2434 30.5854C22.7587 29.3534 23.1225 28.0634 23.3269 26.7437C23.4185 26.1799 23.469 25.6125 23.4781 25.0414C23.512 24.474 23.512 23.9071 23.4781 23.3406C23.2812 22.0317 22.9735 20.7405 22.5582 19.4837ZM20.6649 30.9003C19.591 31.1258 18.4979 31.2441 17.3993 31.2578C15.7121 31.2578 13.9824 31.2578 12.364 31.1891C11.5266 31.1891 10.703 31.1891 9.88075 31.2853C8.64462 31.3541 7.40988 31.4778 6.17513 31.5191H3.54063C3.47937 31.5116 3.41725 31.5163 3.35783 31.533C3.29841 31.5496 3.24288 31.5779 3.19444 31.6161C3.14599 31.6543 3.10559 31.7017 3.07557 31.7557C3.04554 31.8096 3.02649 31.8689 3.0195 31.9302C3.01171 32.0512 3.04987 32.1706 3.12634 32.2647C3.20282 32.3588 3.31198 32.4205 3.432 32.4376C4.9225 32.6851 6.42263 32.8455 7.93237 32.9188C8.536 32.9188 9.12588 32.9188 9.7295 32.9999H12.3915C14.0511 32.9174 15.7946 32.8899 17.523 32.6837C18.6816 32.5458 19.8253 32.3028 20.9399 31.9577C21.0765 31.9192 21.1923 31.8281 21.2619 31.7044C21.3315 31.5807 21.3492 31.4344 21.3111 31.2977C21.2948 31.2292 21.2651 31.1645 21.2238 31.1074C21.1825 31.0504 21.1304 31.002 21.0703 30.9651C21.0103 30.9282 20.9436 30.9035 20.8741 30.8924C20.8045 30.8813 20.7334 30.884 20.6649 30.9003Z" fill="#6ACBCC"/>
<path fill-rule="evenodd" clip-rule="evenodd" d="M25.1681 14.7098C25.2506 14.7098 25.3056 14.9023 25.4018 14.9986C25.51 15.1122 25.6333 15.208 25.7717 15.2859C25.9579 15.3528 26.1616 15.3528 26.3478 15.2859C26.4683 15.2544 26.5808 15.1977 26.6777 15.1194C26.7747 15.0412 26.8539 14.9433 26.9102 14.8322C27.0697 14.5366 27.1632 14.2079 27.1852 13.8724C27.2218 13.324 27.2218 12.7737 27.1852 12.2252C27.1852 11.5803 27.1852 10.9354 27.0339 10.3043C26.8414 8.82343 26.5114 7.38243 26.2364 5.91393C26.1981 5.79035 26.1153 5.68538 26.0041 5.61934C25.8928 5.5533 25.761 5.53088 25.6342 5.55643C25.5229 5.57419 25.4207 5.62838 25.3436 5.7105C25.2664 5.79262 25.2187 5.89803 25.2079 6.01018C23.9319 6.31268 22.6284 6.40893 21.3249 6.61381C20.7213 6.72381 20.1177 6.86131 19.5416 7.01256C18.962 7.16571 18.4039 7.39114 17.8806 7.68356C17.6232 7.82189 17.4166 8.03862 17.2907 8.30231C17.251 8.43027 17.2466 8.56659 17.2781 8.69683C17.3096 8.82706 17.3757 8.94635 17.4694 9.04206L17.8819 9.35831L19.2528 10.4006C19.2528 10.4006 19.1428 10.4006 19.1153 10.5106C18.4306 11.5803 17.7444 12.6652 17.0583 13.7212C16.5908 14.4087 16.1109 15.0934 15.6036 15.7383C15.6036 15.7383 15.2873 16.3846 14.9986 16.7819C14.4926 16.4382 13.9976 16.0669 13.4764 15.7246C13.1721 15.5192 12.8562 15.3314 12.5304 15.1622C12.1935 14.9671 11.8449 14.7926 11.4868 14.6397C11.3609 14.5862 11.2255 14.5586 11.0888 14.5586C10.952 14.5586 10.8166 14.5862 10.6907 14.6397C10.3882 14.8212 10.1228 15.0591 9.90969 15.3409C9.53844 15.8084 9.22219 16.4382 8.94857 16.8094L5.77919 21.5697C5.70911 21.6703 5.68137 21.7944 5.70194 21.9153C5.72252 22.0362 5.78977 22.1442 5.88919 22.2159C5.99188 22.2864 6.11787 22.3143 6.24069 22.2937C6.36351 22.2732 6.47359 22.2059 6.54782 22.1059C6.9869 21.5202 7.44432 20.9436 7.92007 20.3762C8.67357 19.5251 9.46969 18.7028 10.1971 17.9067C10.4583 17.6179 10.7746 17.1518 11.1032 16.7407L11.3369 16.4932C11.5157 16.6169 11.7068 16.7957 11.7481 16.8232L14.5599 18.6341C14.7703 18.7342 15.0083 18.7601 15.2352 18.7077C15.4622 18.6552 15.6647 18.5275 15.8098 18.3453C16.2186 17.8411 16.5981 17.3154 16.9483 16.7682C17.4158 16.0394 17.8682 15.2997 18.3206 14.5311C18.9517 13.4063 19.5141 12.2664 20.1177 11.1417C20.148 11.0723 20.1636 10.9974 20.1636 10.9217C20.1636 10.846 20.148 10.7711 20.1177 10.7017H20.2277C20.3142 10.6142 20.3627 10.4961 20.3627 10.3731C20.3627 10.25 20.3142 10.1319 20.2277 10.0444L19.2267 8.91831C19.5416 8.83581 19.8564 8.78081 20.0077 8.75331C20.9413 8.47968 21.9011 8.27343 22.8622 8.01356C23.6693 7.78749 24.4618 7.51244 25.2354 7.18993L25.4142 12.4039V13.3238C25.2385 13.2202 25.0728 13.1005 24.9192 12.9663C24.6007 12.7164 24.3069 12.4364 24.0419 12.1303C24.0089 12.0802 23.966 12.0374 23.9158 12.0045C23.8656 11.9716 23.8092 11.9493 23.7501 11.939C23.691 11.9287 23.6304 11.9306 23.5721 11.9446C23.5137 11.9586 23.4588 11.9843 23.4108 12.0203C23.3248 12.0791 23.2633 12.1674 23.238 12.2685C23.2126 12.3696 23.2252 12.4765 23.2733 12.5689C22.056 14.1488 20.8072 15.7043 19.5278 17.2343C18.6851 18.2394 17.8016 19.2096 16.8796 20.1424C14.3688 22.5858 15.7961 21.8859 13.1341 20.5274C12.8119 20.3662 12.4766 20.2328 12.1317 20.1287C12.0048 20.0962 11.8721 20.0929 11.7437 20.1191C11.6154 20.1453 11.4946 20.2003 11.3906 20.2799C10.5618 20.9651 9.77396 21.6983 9.03107 22.4758C7.94757 23.6281 6.91769 24.8491 5.86169 25.9889C5.77479 26.0765 5.72602 26.1949 5.72602 26.3182C5.72602 26.4416 5.77479 26.56 5.86169 26.6476C5.95318 26.7322 6.07323 26.7792 6.19788 26.7792C6.32252 26.7792 6.44258 26.7322 6.53407 26.6476C7.65882 25.6039 8.78357 24.4929 9.97707 23.4493C10.5958 22.8984 11.2412 22.3818 11.9131 21.8997C12.0643 21.9684 12.2967 22.0097 12.3242 22.0372C12.8604 22.3397 13.4214 22.8182 13.9838 23.1894C14.2918 23.3929 14.6214 23.5534 14.9724 23.6707C15.1944 23.749 15.4366 23.749 15.6586 23.6707C15.929 23.5082 16.1861 23.3242 16.4272 23.1207L18.1556 21.3786C19.0519 20.3592 19.9033 19.3013 20.7076 18.2078C21.8186 16.6857 22.8622 15.1072 23.9182 13.5424C24.0007 13.6387 24.0557 13.7487 24.1382 13.8449C24.459 14.1603 24.8023 14.4486 25.1681 14.7098Z" fill="#6ACBCC"/>
</svg>
