<svg width="35" height="32" viewBox="0 0 35 32" fill="none" xmlns="http://www.w3.org/2000/svg">
<path fill-rule="evenodd" clip-rule="evenodd" d="M10.5424 19.3319C10.9352 19.3835 11.3284 19.3835 11.7222 19.3319C12.1052 19.2765 12.4795 19.1842 12.8451 19.0549C13.6619 18.7435 14.444 18.3476 15.1784 17.8736C15.2882 17.817 15.372 17.7202 15.4125 17.6035C15.4529 17.4868 15.4469 17.359 15.3957 17.2465C15.3368 17.139 15.24 17.057 15.1242 17.0166C15.0084 16.9762 14.8817 16.9802 14.7686 17.0278C13.9957 17.3005 13.1995 17.509 12.3916 17.6549C11.9103 17.754 11.4247 17.8269 10.9347 17.8736H10.207C11.0578 16.7591 11.5692 15.4228 11.6799 14.0251C11.9716 11.1099 10.5278 8.19465 7.14594 7.90298C6.0589 7.89582 4.98576 8.14732 4.01509 8.63671C3.04443 9.1261 2.20408 9.83935 1.56344 10.7176C0.847273 11.5585 0.419717 12.607 0.343594 13.7089C0.26747 14.8109 0.546794 15.9082 1.14052 16.8396C1.51677 17.3996 2.01552 17.8678 2.59885 18.2105L3.15302 18.5021C2.03395 19.6444 1.18658 21.0241 0.673853 22.5388C0.290691 23.7137 0.069898 24.9354 0.0176031 26.1701C-0.0480219 27.9696 0.0701031 29.7721 0.367603 31.5484C0.371107 31.6143 0.388141 31.6788 0.417645 31.7379C0.44715 31.797 0.488495 31.8493 0.539107 31.8918C0.589719 31.9342 0.648515 31.9657 0.711838 31.9844C0.775162 32.0031 0.841657 32.0086 0.907187 32.0005C1.02579 31.9858 1.13426 31.9262 1.21023 31.834C1.2862 31.7417 1.32389 31.6239 1.31552 31.5046C1.22708 29.7634 1.28073 28.0178 1.47594 26.2853C1.60281 25.1769 1.82156 24.0788 2.13219 23.0055C2.53958 21.5087 3.2378 20.1068 4.18698 18.8799C4.58073 18.9819 4.97448 19.084 5.36823 19.1569C5.42089 19.1675 5.47512 19.1675 5.52781 19.1571C5.58049 19.1467 5.63061 19.126 5.6753 19.0962C5.71999 19.0664 5.75837 19.0281 5.78826 18.9835C5.81814 18.9388 5.83895 18.8888 5.84948 18.8361C5.86001 18.7834 5.86007 18.7292 5.84965 18.6765C5.83922 18.6238 5.81852 18.5737 5.78873 18.529C5.75894 18.4843 5.72064 18.446 5.67601 18.4161C5.63139 18.3862 5.58131 18.3654 5.52865 18.3549C2.61198 17.684 2.08698 16.3278 2.0724 16.284C1.65853 15.5383 1.49603 14.6791 1.60898 13.8337C1.72194 12.9884 2.10434 12.202 2.69948 11.5911C3.20883 10.9129 3.86971 10.3632 4.62934 9.98592C5.38898 9.60864 6.22632 9.41422 7.07448 9.41819C9.56677 9.56402 10.557 11.7369 10.4257 13.8953C10.4399 15.0233 10.08 16.1243 9.40215 17.0262C8.72432 17.928 7.76681 18.5799 6.67927 18.8799C6.55939 18.9013 6.4521 18.9674 6.37903 19.0648C6.30596 19.1623 6.27254 19.2838 6.28552 19.4049C6.30696 19.5237 6.37364 19.6296 6.47154 19.7003C6.56945 19.771 6.69096 19.801 6.81052 19.784C7.59949 19.6707 8.34699 19.3597 8.98344 18.8799C9.47635 19.1088 10.0014 19.2619 10.5424 19.3319Z" fill="#6ACBCC"/>
<path fill-rule="evenodd" clip-rule="evenodd" d="M15.4264 19.9007C14.8311 20.4641 14.1701 20.9537 13.4577 21.359C12.754 21.7506 12.0116 22.0683 11.2425 22.3069C10.6504 22.4528 10.067 22.6278 9.49245 22.8319C9.08597 22.9813 8.74174 23.2634 8.51537 23.6326C8.18742 24.4361 8.04775 25.3041 8.10704 26.1701C8.10704 27.9915 8.70495 30.2359 8.79245 31.388C8.79428 31.4486 8.80831 31.5083 8.8337 31.5634C8.85909 31.6186 8.89532 31.668 8.94023 31.7089C8.98514 31.7497 9.03781 31.781 9.0951 31.8011C9.1524 31.8211 9.21314 31.8294 9.2737 31.8255C9.33308 31.8236 9.39151 31.81 9.44564 31.7855C9.49977 31.7611 9.54854 31.7262 9.58917 31.6828C9.62981 31.6395 9.6615 31.5885 9.68244 31.533C9.70337 31.4774 9.71315 31.4182 9.7112 31.3588C9.7112 30.3671 9.55079 28.5442 9.55079 26.8686C9.55079 23.093 10.4404 24.1561 11.782 23.6311C12.5851 23.2539 13.3483 22.8071 14.0716 22.2909C14.8052 21.7688 15.4716 21.1563 16.0535 20.468C16.0942 20.4311 16.1267 20.386 16.149 20.3358C16.1712 20.2856 16.1827 20.2312 16.1827 20.1763C16.1827 20.1214 16.1712 20.067 16.149 20.0168C16.1267 19.9666 16.0942 19.9215 16.0535 19.8846C16.0141 19.8396 15.9653 19.8037 15.9105 19.7796C15.8558 19.7555 15.7964 19.7437 15.7365 19.7451C15.6767 19.7465 15.6179 19.761 15.5643 19.7877C15.5107 19.8143 15.4637 19.8524 15.4264 19.8992M30.106 17.6111C29.4118 17.684 28.7167 17.684 28.0206 17.6111C25.9512 17.3194 23.1381 15.5126 24.1297 12.5536C24.4639 11.6893 24.9992 10.917 25.6913 10.3007C26.3834 9.68445 27.2124 9.24195 28.1095 9.00985C29.0566 8.72346 30.0713 8.7536 30.9997 9.09571C31.9281 9.43781 32.7197 10.0732 33.2545 10.9057C33.5206 11.3316 33.6993 11.8061 33.7803 12.3017C33.8612 12.7973 33.8428 13.3041 33.7261 13.7925C33.6094 14.2809 33.3967 14.7412 33.1004 15.1467C32.8042 15.5521 32.4302 15.8946 32.0004 16.1542C31.901 16.2248 31.8331 16.3314 31.8113 16.4513C31.7895 16.5712 31.8155 16.6949 31.8837 16.7959C31.9159 16.8484 31.9587 16.8935 32.0095 16.9282C32.0603 16.963 32.1179 16.9867 32.1784 16.9977C32.239 17.0087 32.3012 17.0068 32.361 16.9921C32.4208 16.9775 32.4768 16.9504 32.5254 16.9126C33.0849 16.5989 33.5764 16.1772 33.9716 15.672C34.3667 15.1668 34.6575 14.5881 34.8272 13.9695C34.9968 13.3509 35.0418 12.7048 34.9596 12.0687C34.8773 11.4326 34.6696 10.8191 34.3483 10.264C33.6981 9.13969 32.6979 8.25898 31.5004 7.75631C30.3028 7.25364 28.9736 7.15662 27.7158 7.48005C26.5738 7.77861 25.5229 8.35373 24.6559 9.15464C23.7889 9.95555 23.1324 10.9576 22.7443 12.0723C22.501 12.8179 22.4577 13.6144 22.619 14.3819C22.7802 15.1495 23.1403 15.8612 23.6631 16.4459C23.4224 16.3614 23.1884 16.2591 22.9631 16.1396C22.2013 15.6326 21.5754 14.9466 21.1402 14.1417C20.783 13.4989 20.3307 12.9138 19.7985 12.4063C19.3714 11.978 18.8425 11.6652 18.2615 11.4971C17.6804 11.329 17.0662 11.3112 16.4764 11.4453C15.9926 11.6498 15.5673 11.9715 15.2389 12.3814C14.9105 12.7912 14.6893 13.2764 14.5952 13.7932C14.5087 14.123 14.5087 14.4696 14.5952 14.7994C14.7497 15.201 14.9247 15.5942 15.1202 15.9792C15.3175 16.3584 15.5363 16.723 15.7764 17.073C16.3743 17.9917 17.0802 18.8376 17.8764 19.5944C18.6785 20.3528 19.5827 21.0003 20.5583 21.5194C21.339 21.848 22.1362 22.1348 22.95 22.3798C23.192 22.4673 23.42 22.584 23.6339 22.7298C23.7846 23.2685 23.8818 23.8173 23.9256 24.3763C24.0354 25.2474 24.0792 26.1219 24.0568 26.9998C24.0238 28.3415 23.9168 29.6778 23.736 31.0088C23.7274 31.0624 23.7294 31.1172 23.742 31.1701C23.7545 31.2229 23.7774 31.2727 23.8092 31.3168C23.841 31.3608 23.8812 31.3981 23.9274 31.4266C23.9737 31.455 24.0251 31.4741 24.0787 31.4828C24.1323 31.4914 24.1871 31.4893 24.24 31.4768C24.2928 31.4642 24.3426 31.4414 24.3867 31.4096C24.4307 31.3777 24.468 31.3376 24.4965 31.2913C24.525 31.2451 24.544 31.1937 24.5527 31.1401C24.7714 29.7984 24.9902 28.4276 25.0777 27.0582C25.1438 26.1297 25.1438 25.2012 25.0777 24.2728C25.0604 23.672 25.002 23.0732 24.9027 22.4805C24.8411 22.2217 24.71 21.9847 24.5235 21.7951C24.2028 21.5213 23.8442 21.2954 23.4589 21.1242C22.7297 20.7888 21.8693 20.5701 21.2422 20.2201C20.3949 19.737 19.6115 19.1495 18.9104 18.4715C18.2095 17.7879 17.5792 17.0355 17.0291 16.2257C16.825 15.9048 16.6354 15.5855 16.4604 15.2501C15.8479 14.1417 15.9937 14.2001 16.0812 13.8938C16.1185 13.6628 16.2108 13.4441 16.3504 13.2563C16.4901 13.0684 16.6728 12.917 16.8833 12.8146C17.3791 12.6251 18.0354 12.8146 18.9687 13.4709C19.902 14.1271 20.5729 16.1251 22.3958 17.0876C23.2562 17.5251 24.2143 17.7351 25.1783 17.7001C25.3193 17.7905 25.4651 17.8731 25.6158 17.948C26.3333 18.2717 27.1033 18.4642 27.8908 18.5167C28.6458 18.556 29.4028 18.5218 30.1512 18.4146C30.2044 18.4093 30.256 18.3932 30.3028 18.3673C30.3497 18.3414 30.3907 18.3062 30.4234 18.2639C30.4562 18.2216 30.48 18.173 30.4934 18.1212C30.5067 18.0694 30.5094 18.0154 30.5012 17.9626C30.4937 17.8646 30.4485 17.7733 30.375 17.708C30.3016 17.6427 30.2056 17.6085 30.1075 17.6126" fill="#6ACBCC"/>
<path fill-rule="evenodd" clip-rule="evenodd" d="M31.4176 17.0146C31.3808 16.9681 31.3342 16.9303 31.2813 16.9036C31.2283 16.8769 31.1702 16.8621 31.111 16.8601C31.0517 16.8582 30.9927 16.8692 30.9381 16.8923C30.8836 16.9155 30.8347 16.9502 30.7949 16.9942C30.7553 17.0382 30.7257 17.0903 30.7082 17.1469C30.6908 17.2035 30.6858 17.2632 30.6937 17.3219C30.7016 17.3805 30.7222 17.4368 30.754 17.4867C30.7859 17.5367 30.8282 17.5791 30.878 17.6111C32.0902 18.9829 32.8535 20.6928 33.0655 22.5111C33.2551 23.6 33.3718 24.6976 33.4155 25.804C33.469 27.5157 33.4252 29.2291 33.2843 30.9359C33.2761 30.9953 33.2798 31.0558 33.2953 31.1138C33.3107 31.1717 33.3375 31.2261 33.3742 31.2736C33.4108 31.3211 33.4566 31.3608 33.5087 31.3905C33.5609 31.4201 33.6184 31.4391 33.678 31.4463C33.7976 31.4633 33.9191 31.4333 34.017 31.3626C34.1149 31.2919 34.1816 31.186 34.203 31.0671C34.5763 29.3346 34.8053 27.5744 34.8884 25.804C34.9372 24.5901 34.8293 23.3751 34.5676 22.1888C34.1327 20.1575 33.0223 18.3336 31.4176 17.0146ZM10.4263 5.25024C10.4963 5.49523 10.5887 5.73343 10.7034 5.96482C10.8055 6.19037 10.9222 6.40912 11.0534 6.62107C11.3888 7.13148 11.7578 7.61711 12.1603 8.07794C12.2152 8.16987 12.3029 8.23754 12.4058 8.26731C12.5086 8.29708 12.6189 8.28674 12.7145 8.23836C12.8091 8.18607 12.8792 8.09835 12.9093 7.99445C12.9394 7.89056 12.927 7.77898 12.8749 7.68419C12.6853 7.11544 12.5832 6.56128 12.3936 6.00711C12.3111 5.77266 12.2137 5.54372 12.102 5.32169C11.9988 5.1007 11.8819 4.88639 11.752 4.68003C11.4457 4.16961 11.1103 3.68982 10.7749 3.22315C10.7206 3.11436 10.626 3.03104 10.5112 2.99093C10.3965 2.95083 10.2706 2.95709 10.1603 3.00841C10.0501 3.05972 9.96428 3.15202 9.92108 3.26566C9.87788 3.37931 9.88074 3.50533 9.92905 3.6169C10.104 4.1419 10.2222 4.69607 10.4263 5.25024ZM17.0297 5.60024C17.0296 5.70605 17.0706 5.80776 17.1441 5.88393C17.2175 5.96011 17.3177 6.00479 17.4234 6.00857C17.4775 6.01259 17.5319 6.00538 17.5831 5.9874C17.6343 5.96942 17.6812 5.94105 17.7209 5.90408C17.7606 5.86711 17.7922 5.82233 17.8138 5.77255C17.8354 5.72278 17.8465 5.66908 17.8463 5.61482C17.9776 5.00232 18.138 4.43357 18.2109 3.80649C18.2246 3.54903 18.2246 3.29103 18.2109 3.03357C18.2236 2.7769 18.2236 2.51926 18.2109 2.26065C18.2109 1.66274 18.0359 1.0794 17.9484 0.466902C17.9487 0.348026 17.9035 0.233542 17.8222 0.146817C17.7409 0.0600924 17.6296 0.00766484 17.5109 0.000235291C17.4503 -0.00172006 17.39 0.0085282 17.3334 0.0303704C17.2769 0.0522127 17.2253 0.0852027 17.1818 0.127379C17.1382 0.169555 17.1036 0.220056 17.08 0.275878C17.0564 0.3317 17.0442 0.391703 17.0443 0.452319C16.9422 1.06482 16.8255 1.64815 16.7672 2.26065C16.7535 2.51811 16.7535 2.77611 16.7672 3.03357C16.7526 3.29218 16.7526 3.54982 16.7672 3.80649C16.7963 4.41899 16.9422 4.98774 17.0297 5.60024ZM22.3351 7.61128C22.7648 7.30308 23.1683 6.9628 23.5455 6.59044C23.6913 6.42808 23.8226 6.25308 23.9393 6.06544C24.0559 5.89044 24.158 5.70086 24.2601 5.51128C24.4788 5.04461 24.6538 4.59253 24.858 4.14044C24.9331 4.04425 24.9689 3.92311 24.9581 3.80154C24.9472 3.67997 24.8906 3.56705 24.7997 3.48565C24.6987 3.41746 24.575 3.39149 24.4551 3.41329C24.3352 3.43509 24.2285 3.50293 24.158 3.60232C23.7788 3.9669 23.4288 4.30232 23.0788 4.69607C22.9476 4.85649 22.8163 5.0169 22.6997 5.1919C22.5586 5.37131 22.4319 5.56147 22.3205 5.76065C22.1018 6.21274 21.9559 6.66482 21.7226 7.10232C21.6856 7.14224 21.657 7.18916 21.6384 7.2403C21.6198 7.29144 21.6117 7.34578 21.6144 7.40012C21.6171 7.45447 21.6307 7.50772 21.6542 7.55675C21.6778 7.60579 21.711 7.64961 21.7518 7.68565C21.7927 7.72166 21.8405 7.74911 21.8922 7.76637C21.9439 7.78363 21.9986 7.79035 22.053 7.78613C22.1073 7.78192 22.1603 7.76686 22.2088 7.74183C22.2572 7.71681 22.3002 7.68234 22.3351 7.64044V7.61128Z" fill="#6ACBCC"/>
</svg>
