<?xml version="1.0" encoding="UTF-8"?>
<svg id="Layer_1" xmlns="http://www.w3.org/2000/svg" version="1.1" viewBox="0 0 30 30">
  <!-- Generator: Adobe Illustrator 29.4.0, SVG Export Plug-In . SVG Version: 2.1.0 Build 152)  -->
  <defs>
    <style>
      .st0 {
        fill: #6acbcc;
      }
    </style>
  </defs>
  <path class="st0" d="M28.1.9c0-.2,0-.5-.3-.7-.2-.2-.4-.3-.7-.3s-.5,0-.7.3c-.2.2-.3.4-.3.7v.9h-.9c-.2,0-.5,0-.7.3-.2.2-.3.4-.3.7s0,.5.3.7c.2.2.4.3.7.3h.9v.9c0,.2,0,.5.3.7.2.2.4.3.7.3s.5,0,.7-.3c.2-.2.3-.4.3-.7v-.9h.9c.2,0,.5,0,.7-.3.2-.2.3-.4.3-.7s0-.5-.3-.7c-.2-.2-.4-.3-.7-.3h-.9v-.9ZM3.8,25.3c0-.2,0-.5-.3-.7-.2-.2-.4-.3-.7-.3s-.5,0-.7.3c-.2.2-.3.4-.3.7v.9h-.9c-.2,0-.5,0-.7.3-.2.2-.3.4-.3.7s0,.5.3.7c.2.2.4.3.7.3h.9v.9c0,.2,0,.5.3.7.2.2.4.3.7.3s.5,0,.7-.3c.2-.2.3-.4.3-.7v-.9h.9c.2,0,.5,0,.7-.3.2-.2.3-.4.3-.7s0-.5-.3-.7c-.2-.2-.4-.3-.7-.3h-.9v-.9ZM9.4,22.4v2c0,1.5.6,2.9,1.6,4,1.1,1.1,2.5,1.6,4,1.6h9.4c1.5,0,2.9-.6,4-1.6,1.1-1.1,1.6-2.5,1.6-4v-9.4c0-1.5-.6-2.9-1.6-4-1.1-1.1-2.5-1.6-4-1.6h-2c.2.6.2,1.3,0,1.9h2c1,0,1.9.4,2.7,1.1.7.7,1.1,1.7,1.1,2.7v9.4c0,1-.4,1.9-1.1,2.7-.7.7-1.7,1.1-2.7,1.1h-9.4c-1,0-1.9-.4-2.7-1.1-.7-.7-1.1-1.7-1.1-2.7v-2c-.6.2-1.3.2-1.9,0ZM15.9,20.6c-.2,0-.5,0-.7.3-.2.2-.3.4-.3.7s0,.5.3.7c.2.2.4.3.7.3h5.6c.2,0,.5,0,.7-.3.2-.2.3-.4.3-.7s0-.5-.3-.7c-.2-.2-.4-.3-.7-.3h-5.6ZM15,17.8c0-.2,0-.5.3-.7.2-.2.4-.3.7-.3h8.4c.2,0,.5,0,.7.3.2.2.3.4.3.7s0,.5-.3.7c-.2.2-.4.3-.7.3h-8.4c-.2,0-.5,0-.7-.3-.2-.2-.3-.4-.3-.7ZM9.8,2.4c0-.3.3-.5.5-.5s.4.2.5.5c.4,1.8,1.3,3.5,2.6,4.9,1.3,1.3,3,2.2,4.9,2.6.3,0,.5.3.5.5s-.2.4-.5.5c-1.8.4-3.5,1.3-4.9,2.6-1.3,1.3-2.2,3-2.6,4.9,0,.3-.3.5-.5.5s-.4-.2-.5-.5c-.4-1.8-1.3-3.5-2.6-4.9-1.3-1.3-3-2.2-4.9-2.6-.3,0-.5-.3-.5-.5s.2-.4.5-.5c1.8-.4,3.5-1.3,4.9-2.6,1.3-1.3,2.2-3,2.6-4.9M10.3,0c-1.2,0-2.1,1-2.3,2-.3,1.5-1,2.8-2.1,3.9-1.3,1.3-2.9,1.9-3.9,2.1-1,.2-2,1.1-2,2.3,0,1.2,1,2.1,2,2.3,1,.2,2.6.7,3.9,2.1,1.3,1.3,1.9,2.9,2.1,3.9.2,1,1.1,2,2.3,2s2.1-1,2.3-2c.3-1.5,1-2.8,2.1-3.9,1.1-1.1,2.4-1.8,3.9-2.1,1-.2,2-1.1,2-2.3s-1-2.1-2-2.3c-1.5-.3-2.8-1-3.9-2.1-1.1-1.1-1.8-2.4-2.1-3.9-.2-1-1.1-2-2.3-2Z"/>
</svg>