<?xml version="1.0" encoding="UTF-8"?>
<svg id="Layer_1" xmlns="http://www.w3.org/2000/svg" version="1.1" viewBox="0 0 64 48">
  <!-- Generator: Adobe Illustrator 29.4.0, SVG Export Plug-In . SVG Version: 2.1.0 Build 152)  -->
  <defs>
    <style>
      .st0 {
        fill: #52c3c5;
        fill-opacity: .4;
      }
    </style>
  </defs>
  <path class="st0" d="M34.2,47.9v-13.7h9.1l-11.4-13.7-11.4,13.7h9.1v13.7h-11.4c-.4,0-.7,0-1.1,0-4.5,0-8.9-1.8-12.1-5-3.2-3.2-5-7.6-5-12.1,0-8.8,6.6-15.9,15.2-16.9.7-3.9,2.8-7.4,5.9-10C24.1,1.4,28,0,31.9,0c4,0,7.8,1.4,10.9,3.9,3.1,2.5,5.1,6.1,5.9,10,8.5,1,15.1,8.1,15.1,16.9s-1.8,8.9-5,12.1c-3.2,3.2-7.6,5-12.1,5s-.8,0-1.1-.1h0c0,.1-11.4.1-11.4.1Z"/>
</svg>