<?xml version="1.0" encoding="UTF-8"?>
<svg id="Layer_2" data-name="Layer 2" xmlns="http://www.w3.org/2000/svg" viewBox="0 0 572.13 172.1">
  <defs>
    <style>
      .cls-1 {
        fill: #363737;
      }

      .cls-2 {
        fill: #52c3c5;
      }
    </style>
  </defs>
  <g id="Layer_1-2" data-name="Layer 1">
    <path class="cls-1" d="M144.22,25.28v33.77c0,3.1-2.51,5.61-5.61,5.61h-44v101.82c0,3.1-2.51,5.62-5.61,5.62h-33.78c-3.1,0-5.61-2.52-5.61-5.62v-101.82H5.61c-3.1,0-5.61-2.51-5.61-5.61V25.28c0-3.1,2.51-5.62,5.61-5.62h133c3.1,0,5.61,2.52,5.61,5.62Z"/>
    <rect class="cls-1" x="104.22" y="73.38" width="152.44" height="45" rx="5.61" ry="5.61" transform="translate(276.32 -84.56) rotate(90)"/>
    <path class="cls-1" d="M348.62,119.71h-23.31c-1.46,0-2.89.41-4.13,1.17l-42.15,26c-3,1.85-6.88,1.37-9.34-1.15l-23.42-24.05c-1.23-1.26-2.91-1.97-4.67-1.97h-19.54c-3.1,0-5.61,2.51-5.61,5.61v39.12c0,3.1,2.51,5.61,5.61,5.61h126.56c3.1,0,5.61-2.51,5.61-5.61v-39.12c0-3.1-2.51-5.61-5.61-5.61Z"/>
    <path class="cls-2" d="M282.73,77.13L407.45.52c2.32-1.42,5.3.24,5.3,2.96v49.24c0,3.58-1.86,6.91-4.9,8.79l-127.16,78.45c-2.73,1.68-6.26,1.25-8.49-1.05l-56.39-57.9c-2.83-2.9-4.41-6.79-4.41-10.85V21.89c0-3.33,4.02-5.01,6.38-2.66l57.63,57.05c1.96,1.94,4.98,2.28,7.32.84Z"/>
    <path class="cls-1" d="M368.39,172.1h44.62v-89.72c0-5.05-5.47-8.2-9.84-5.68l-27.37,15.82c-4.58,2.65-7.41,7.54-7.41,12.84v66.74Z"/>
    <path class="cls-1" d="M572.13,25.28v33.77c0,3.1-2.51,5.61-5.61,5.61h-44v101.82c0,3.1-2.51,5.62-5.61,5.62h-33.78c-3.1,0-5.61-2.52-5.61-5.62v-101.82h-44c-3.1,0-5.61-2.51-5.61-5.61V25.28c0-3.1,2.51-5.62,5.61-5.62h133c3.1,0,5.61,2.52,5.61,5.62Z"/>
  </g>
</svg>